<svg xmlns="http://www.w3.org/2000/svg" viewBox="0 0 180 20" aria-label="Logo" class="css-wjaruy"><g><path d="M0 6.62097C0 5.74639 0.149497 4.90997 0.451364 4.11169C0.753232 3.31048 1.1931 2.60613 1.77096 2.00155C2.34882 1.39404 3.06468 0.909796 3.92141 0.545878C4.77814 0.181959 5.75849 0 6.86821 0C8.38905 0 9.65977 0.322831 10.6832 0.968493C11.7038 1.61709 12.4686 2.45058 12.9774 3.46897L8.58167 4.82779C8.15331 4.1968 7.57545 3.88278 6.84521 3.88278C6.2271 3.88278 5.70387 4.1205 5.2755 4.59887C4.84714 5.07725 4.63439 5.75226 4.63439 6.6239C4.63439 7.49555 4.84714 8.17349 5.2755 8.64893C5.70387 9.12731 6.2271 9.36503 6.84521 9.36503C7.57545 9.36503 8.15331 9.04807 8.58167 8.41708L12.9774 9.77591C12.4715 10.7943 11.7038 11.6278 10.6832 12.2734C9.65977 12.922 8.38905 13.2449 6.86821 13.2449C5.75849 13.2449 4.77526 13.0629 3.92141 12.699C3.06755 12.3351 2.34882 11.8479 1.77096 11.2433C1.1931 10.6358 0.753232 9.93145 0.451364 9.13318C0.149497 8.33491 0 7.49555 0 6.62097Z" fill="#FEFEFE"></path><path d="M20.4379 13.2449C19.3138 13.2449 18.3277 13.0629 17.4796 12.699C16.6315 12.3351 15.9185 11.8479 15.3406 11.2433C14.7627 10.6387 14.3258 9.93145 14.0325 9.13318C13.7393 8.33197 13.5927 7.49555 13.5927 6.62097C13.5927 5.74639 13.7393 4.90997 14.0325 4.11169C14.3258 3.31048 14.7627 2.60613 15.3406 2.00155C15.9185 1.39698 16.6315 0.909796 17.4796 0.545878C18.3277 0.179024 19.3138 0 20.4379 0C21.562 0 22.5308 0.181959 23.3847 0.545878C24.2385 0.909796 24.9573 1.39698 25.5351 2.00155C26.113 2.60906 26.55 3.31048 26.8432 4.11169C27.1365 4.9129 27.2831 5.74933 27.2831 6.62097C27.2831 7.49261 27.1365 8.33197 26.8432 9.13318C26.55 9.93439 26.113 10.6387 25.5351 11.2433C24.9573 11.8508 24.2385 12.3351 23.3847 12.699C22.5308 13.0629 21.5447 13.2449 20.4379 13.2449ZM18.227 6.62097C18.227 7.47794 18.434 8.15001 18.8452 8.63426C19.2563 9.11851 19.7881 9.3621 20.4379 9.3621C21.0876 9.3621 21.6195 9.11851 22.0306 8.63426C22.4417 8.15001 22.6487 7.47794 22.6487 6.62097C22.6487 5.764 22.4417 5.09192 22.0306 4.60768C21.6195 4.12343 21.0876 3.87984 20.4379 3.87984C19.7881 3.87984 19.2563 4.12343 18.8452 4.60768C18.434 5.09192 18.227 5.764 18.227 6.62097Z" fill="#FEFEFE"></path><path d="M49.0291 13.0013H44.5155V5.81976C44.5155 5.18877 44.3918 4.73094 44.1475 4.4492C43.9031 4.16745 43.6041 4.02365 43.2563 4.02365C42.9084 4.02365 42.5059 4.19387 42.1034 4.53431C41.7009 4.87475 41.4019 5.31204 41.2122 5.84324V13.0013H36.6985V5.81976C36.6985 5.18877 36.5749 4.73094 36.3305 4.4492C36.0862 4.16745 35.7872 4.02365 35.4393 4.02365C35.0914 4.02365 34.689 4.19387 34.2865 4.53431C33.884 4.87475 33.585 5.31204 33.3952 5.84324V13.0013H28.8816V0.240656H32.9439V2.13362C33.3866 1.43807 33.999 0.906861 34.7752 0.542943C35.5514 0.179024 36.4657 0 37.5265 0C38.0325 0 38.4781 0.0616314 38.8576 0.181959C39.2371 0.302287 39.5677 0.469572 39.8437 0.68088C40.1197 0.892187 40.3439 1.12697 40.5107 1.38524C40.6774 1.6435 40.8068 1.91938 40.9017 2.20992C41.3444 1.51437 41.951 0.971428 42.7215 0.584031C43.4862 0.190764 44.3631 0 45.3463 0C46.1714 0 46.824 0.158481 47.307 0.472507C47.79 0.786534 48.158 1.1798 48.411 1.64937C48.664 2.11894 48.8307 2.6208 48.9112 3.15494C48.9917 3.68908 49.0291 4.17332 49.0291 4.61061V13.0042V13.0013Z" fill="#FEFEFE"></path><path d="M59.629 13.2449C58.7262 13.2449 57.9414 13.0629 57.2773 12.699C56.6132 12.3351 56.0957 11.8039 55.7306 11.1083V19.6927H51.2169V0.240656H55.1383V2.1571C55.5811 1.46154 56.1302 0.927405 56.7799 0.554682C57.4239 0.184894 58.226 0 59.1747 0C59.9998 0 60.7675 0.167285 61.4804 0.498921C62.1934 0.830556 62.8029 1.28839 63.3118 1.86948C63.8178 2.45352 64.2174 3.14613 64.5135 3.95615C64.8067 4.76616 64.9534 5.6378 64.9534 6.57695C64.9534 7.51609 64.8182 8.41708 64.548 9.23296C64.2777 10.0518 63.9069 10.7591 63.4296 11.3548C62.9553 11.9535 62.3918 12.4202 61.7421 12.7518C61.0923 13.0835 60.388 13.2507 59.6261 13.2507L59.629 13.2449ZM58.0593 9.3621C58.3928 9.3621 58.6975 9.28873 58.9735 9.14492C59.2524 8.99818 59.4881 8.79861 59.6865 8.53741C59.8848 8.27915 60.043 7.97979 60.1608 7.63935C60.2787 7.29891 60.3391 6.935 60.3391 6.5476C60.3391 5.73759 60.112 5.09192 59.6606 4.60768C59.2092 4.12343 58.6112 3.87984 57.8666 3.87984C57.0272 3.87984 56.3142 4.31713 55.7277 5.18877V7.39576C55.9491 7.96218 56.2739 8.43176 56.7023 8.80448C57.1307 9.1772 57.582 9.3621 58.0564 9.3621H58.0593Z" fill="#FEFEFE"></path><path d="M99.2139 19.9539C98.5958 19.9539 98.0179 19.8482 97.4774 19.6369C96.9398 19.4256 96.4741 19.138 96.0889 18.7741C95.7007 18.4101 95.396 17.9758 95.1717 17.4769C94.9504 16.975 94.8383 16.4321 94.8383 15.851C94.8383 15.2053 94.9734 14.6125 95.2436 14.0813C95.5139 13.5471 95.8847 13.0864 96.362 12.699C96.8363 12.3116 97.4027 12.0122 98.0611 11.8009C98.7194 11.5896 99.4439 11.484 100.237 11.484C101.252 11.484 102.092 11.6454 102.756 11.9682V11.5808C102.756 10.9821 102.586 10.5389 102.244 10.2455C101.902 9.95491 101.353 9.80817 100.594 9.80817C99.8809 9.80817 99.2225 9.92556 98.6217 10.1603C98.0179 10.3951 97.3854 10.7385 96.7185 11.1934L95.4104 8.33195C97.0577 7.249 98.935 6.70605 101.042 6.70605C103.038 6.70605 104.576 7.15802 105.654 8.06488C106.732 8.97174 107.269 10.3306 107.269 12.1414V14.6154C107.269 15.0527 107.333 15.355 107.459 15.5252C107.586 15.6954 107.807 15.7952 108.126 15.8275V19.7073C107.761 19.7895 107.416 19.8482 107.091 19.8893C106.766 19.9304 106.476 19.9509 106.223 19.9509C105.415 19.9509 104.8 19.8013 104.38 19.5019C103.96 19.2025 103.687 18.7623 103.561 18.1783L103.466 17.7175C102.911 18.4454 102.27 19 101.543 19.3786C100.812 19.7602 100.036 19.948 99.2139 19.948V19.9539ZM100.568 16.6551C100.838 16.6551 101.114 16.6111 101.402 16.5201C101.686 16.4321 101.939 16.3147 102.161 16.1679C102.336 16.0388 102.477 15.8979 102.589 15.7424C102.701 15.5868 102.756 15.4313 102.756 15.2699V14.3219C102.486 14.2251 102.192 14.1429 101.876 14.0783C101.56 14.0138 101.272 13.9815 101.019 13.9815C100.464 13.9815 100.005 14.1194 99.6394 14.3953C99.2743 14.6712 99.0932 15.0175 99.0932 15.4372C99.0932 15.7923 99.2312 16.0858 99.51 16.3117C99.786 16.5377 100.14 16.6522 100.568 16.6522V16.6551Z" fill="#FEFEFE"></path><path d="M117.726 19.954C115.84 19.954 114.494 19.2085 113.686 17.7206V19.7104H109.765V0.217285H114.279V8.84274C114.644 8.14719 115.158 7.61598 115.825 7.25206C116.492 6.88815 117.274 6.70619 118.177 6.70619C118.939 6.70619 119.646 6.87641 120.304 7.21685C120.963 7.55729 121.529 8.02099 122.003 8.61382C122.478 9.20666 122.852 9.90808 123.122 10.724C123.392 11.5398 123.527 12.4262 123.527 13.38C123.527 14.3338 123.381 15.2113 123.087 16.0125C122.794 16.8137 122.389 17.5034 121.874 18.0874C121.36 18.6715 120.744 19.1264 120.031 19.458C119.318 19.7896 118.551 19.9569 117.726 19.9569V19.954ZM116.417 16.0712C117.162 16.0712 117.76 15.8276 118.211 15.3434C118.663 14.8591 118.89 14.2105 118.89 13.4035C118.89 13.0161 118.83 12.6521 118.712 12.3117C118.594 11.9713 118.433 11.6719 118.237 11.4136C118.042 11.1554 117.8 10.9529 117.524 10.8061C117.248 10.6594 116.944 10.589 116.61 10.589C116.136 10.589 115.684 10.7621 115.256 11.1114C114.828 11.4606 114.503 11.9155 114.281 12.4819V14.7623C114.868 15.6369 115.581 16.0712 116.42 16.0712H116.417Z" fill="#FEFEFE"></path><path d="M125.045 0.217285H129.562V14.639C129.562 15.6105 129.95 16.0947 130.726 16.0947C130.916 16.0947 131.123 16.0624 131.344 15.9978C131.566 15.9333 131.773 15.8452 131.962 15.7308L132.534 19.1264C131.994 19.3846 131.39 19.5871 130.715 19.7339C130.039 19.8806 129.404 19.9511 128.803 19.9511C127.598 19.9511 126.672 19.6341 126.023 19.0031C125.373 18.3721 125.048 17.4594 125.048 16.262V0.217285H125.045Z" fill="#FEFEFE"></path><path d="M139.733 19.9539C138.641 19.9539 137.666 19.7807 136.809 19.4315C135.953 19.0822 135.237 18.6097 134.659 18.011C134.081 17.4123 133.641 16.7256 133.339 15.9478C133.037 15.173 132.888 14.3542 132.888 13.4972C132.888 12.5757 133.035 11.7011 133.328 10.8764C133.621 10.0518 134.055 9.33273 134.636 8.71642C135.214 8.1001 135.927 7.61292 136.775 7.249C137.623 6.88508 138.609 6.70312 139.733 6.70312C140.857 6.70312 141.826 6.88508 142.68 7.249C143.537 7.61292 144.253 8.1001 144.83 8.70468C145.408 9.31219 145.845 10.0136 146.139 10.8148C146.432 11.616 146.578 12.4525 146.578 13.3241C146.578 13.5677 146.567 13.8142 146.544 14.0637C146.521 14.3161 146.492 14.5362 146.461 14.7328H137.692C137.741 15.4137 137.985 15.9009 138.428 16.2002C138.871 16.4996 139.357 16.6493 139.877 16.6493C140.369 16.6493 140.831 16.5348 141.268 16.3088C141.705 16.0828 141.993 15.7659 142.137 15.3638L145.963 16.479C145.457 17.4974 144.675 18.3309 143.623 18.9766C142.568 19.6252 141.274 19.948 139.739 19.948L139.733 19.9539ZM141.728 11.9711C141.648 11.3548 141.427 10.8706 141.064 10.5155C140.699 10.1604 140.231 9.98133 139.661 9.98133C139.092 9.98133 138.623 10.1604 138.258 10.5155C137.893 10.8706 137.672 11.3578 137.594 11.9711H141.728Z" fill="#FEFEFE"></path><path d="M79.1497 4.11169C78.8565 3.31048 78.4195 2.60613 77.8416 2.00155C77.2638 1.39698 76.545 0.909796 75.6912 0.545878C74.8373 0.181959 73.8541 0 72.7444 0C71.6347 0 70.6313 0.181959 69.7861 0.545878C68.938 0.909796 68.225 1.39698 67.6471 2.00155C67.0693 2.60906 66.6323 3.31048 66.339 4.11169C66.0458 4.9129 65.8992 5.74933 65.8992 6.62097C65.8992 7.49261 66.0458 8.33197 66.339 9.13318C66.6323 9.93439 67.0664 10.6387 67.6471 11.2433C68.225 11.8508 68.938 12.3351 69.7861 12.699C70.6342 13.0629 71.6203 13.2449 72.7444 13.2449C73.2302 13.2449 73.6874 13.2038 74.1243 13.1333L79.3855 4.95105C79.3222 4.66637 79.2475 4.38463 79.1469 4.11169H79.1497ZM74.3371 8.63719C73.926 9.12144 73.3941 9.36503 72.7444 9.36503C72.0946 9.36503 71.5628 9.12144 71.1517 8.63719C70.7406 8.15295 70.5336 7.48087 70.5336 6.6239C70.5336 5.76693 70.7406 5.09486 71.1517 4.61061C71.5628 4.12637 72.0946 3.88278 72.7444 3.88278C73.3941 3.88278 73.926 4.12637 74.3371 4.61061C74.7482 5.09486 74.9552 5.76693 74.9552 6.6239C74.9552 7.48087 74.7482 8.15295 74.3371 8.63719Z" fill="#FEFEFE"></path><path d="M92.9523 13.2713C92.5785 12.9543 92.0841 12.6638 91.4659 12.3967C90.8478 12.1297 90.086 11.8743 89.1832 11.6307C88.4386 11.437 87.9384 11.2639 87.6854 11.1083C87.4324 10.9557 87.3059 10.7562 87.3059 10.5126C87.3059 10.2866 87.3922 10.1193 87.5675 10.0137C87.7429 9.908 87.9643 9.85517 88.2345 9.85517C88.6945 9.85517 89.1861 9.96376 89.7094 10.1839C90.2326 10.401 90.8823 10.7708 91.6586 11.2874L93.3691 8.52276C92.5297 7.77731 91.6931 7.28426 90.8622 7.04361C90.0314 6.80002 89.1545 6.67969 88.2374 6.67969C87.97 6.67969 87.717 6.70904 87.464 6.73838L83.5829 12.7724C83.7324 12.9954 83.9106 13.2067 84.1579 13.4004C84.5316 13.691 85.0146 13.9639 85.6097 14.2134C86.2048 14.4628 86.9437 14.7182 87.832 14.9764C88.545 15.1877 89.0251 15.3726 89.2695 15.5341C89.5139 15.6955 89.6375 15.8892 89.6375 16.1181C89.6375 16.5231 89.3213 16.7256 88.6859 16.7256C88.0505 16.7256 87.4209 16.5789 86.7022 16.2883C85.9806 15.9978 85.2331 15.584 84.4569 15.0498L82.913 17.8144C83.6404 18.51 84.5287 19.0412 85.5752 19.4051C86.6217 19.769 87.6912 19.951 88.7836 19.951C89.5915 19.951 90.316 19.8541 90.9571 19.6604C91.5982 19.4667 92.1473 19.182 92.5987 18.8123C93.05 18.4395 93.395 17.9964 93.6336 17.4769C93.8723 16.9575 93.9901 16.3676 93.9901 15.7043C93.9901 15.1877 93.9096 14.7299 93.7515 14.3337C93.5934 13.9375 93.326 13.5824 92.9552 13.2654L92.9523 13.2713Z" fill="#FEFEFE"></path><path d="M88.3582 0.173096L76.571 19.7014H73.5063L85.2906 0.173096H88.3582Z" fill="#5059F6"></path><path d="M165.317 4.44036C166.438 4.44036 167.347 3.5127 167.347 2.36837C167.347 1.22405 166.438 0.296387 165.317 0.296387C164.196 0.296387 163.288 1.22405 163.288 2.36837C163.288 3.5127 164.196 4.44036 165.317 4.44036Z" fill="#5059F6"></path><path d="M153.447 19.8923C152.159 19.8923 151.184 19.4638 150.523 18.6039C149.864 17.747 149.534 16.4674 149.534 14.7681V7.07007H152.127V14.2369C152.127 16.4997 152.912 17.6296 154.484 17.6296C155.223 17.6296 155.922 17.3977 156.58 16.9311C157.242 16.4674 157.75 15.7924 158.113 14.909V7.06714H160.706V16.5202C160.706 16.8254 160.758 17.0426 160.858 17.1688C160.959 17.2979 161.146 17.3684 161.41 17.386V19.6458C161.143 19.6928 160.924 19.725 160.752 19.7427C160.579 19.7573 160.413 19.7661 160.257 19.7661C159.786 19.7661 159.386 19.6341 159.056 19.3699C158.725 19.1058 158.553 18.7654 158.538 18.3486L158.492 17.0984C157.943 18.0111 157.227 18.7067 156.347 19.1792C155.468 19.6517 154.502 19.8894 153.45 19.8894L153.447 19.8923Z" fill="#5059F6"></path><path d="M164.003 19.6517V7.073H166.597V19.6546H164.003V19.6517Z" fill="#5059F6"></path></g></svg>